# Blender v2.79 (sub 0) OBJ File: 'cbox.blend'
# www.blender.org
mtllib cbox.mtl
o rightWall
v 1.000000 1.590000 0.990000
v 1.000000 1.590000 -1.040000
v 1.000000 0.000000 -1.040000
v 1.000000 -0.000000 0.990000
vt 0.000000 1.000000
vt 0.000000 1.000000
vt 0.000000 1.000000
vt 0.000000 1.000000
vn -1.0000 0.0000 0.0000
usemtl wall_blue
s 1
f 4/1/1 1/2/1 2/3/1 3/4/1
o leftWall
v -1.000000 1.590000 -1.040000
v -1.000000 1.590000 0.990000
v -1.000000 -0.000000 0.990000
v -1.000000 0.000000 -1.040000
vt 0.000000 1.000000
vt 0.000000 1.000000
vt 0.000000 1.000000
vt 0.000000 1.000000
vn 1.0000 0.0000 0.0000
usemtl wall_red
s 1
f 8/5/2 5/6/2 6/7/2 7/8/2
o light
v 0.230000 1.580000 -0.220000
v 0.230000 1.580000 0.160000
v -0.240000 1.580000 0.160000
v -0.240000 1.580000 -0.220000
vt 0.000000 1.000000
vt 0.000000 1.000000
vt 0.000000 1.000000
vt 0.000000 1.000000
vn 0.0000 -1.0000 0.0000
usemtl light
s 1
f 12/9/3 9/10/3 10/11/3 11/12/3
o backWall
v 1.000000 1.590000 -1.040000
v -1.000000 1.590000 -1.040000
v -1.000000 0.000000 -1.040000
v 1.000000 0.000000 -1.040000
vt 0.000000 1.000000
vt 0.000000 1.000000
vt 0.000000 1.000000
vt 0.000000 1.000000
vn 0.0000 0.0000 1.0000
usemtl wall_gray
s 1
f 16/13/4 13/14/4 14/15/4 15/16/4
o floor
v 1.000000 0.000000 -1.040000
v -1.000000 0.000000 -1.040000
v -1.000000 -0.000000 0.990000
v 1.000000 -0.000000 0.990000
vt 0.000000 1.000000
vt 0.000000 1.000000
vt 0.000000 1.000000
vt 0.000000 1.000000
vn 0.0000 1.0000 0.0000
usemtl wall_gray
s 1
f 20/17/5 17/18/5 18/19/5 19/20/5
o ceiling
v 1.000000 1.590000 -1.040000
v 1.000000 1.590000 0.990000
v -1.000000 1.590000 0.990000
v -1.000000 1.590000 -1.040000
vt 0.000000 1.000000
vt 0.000000 1.000000
vt 0.000000 1.000000
vt 0.000000 1.000000
vn 0.0000 -1.0000 0.0000
usemtl wall_gray
s 1
f 24/21/6 21/22/6 22/23/6 23/24/6
